<svg xmlns="http://www.w3.org/2000/svg" width="18" height="4">
  <path fill="gray" fill-rule="evenodd" d="M 16.06 4.06 C 14.96 4.06 14.06 3.17 14.06 2.06 C 14.06 0.96 14.96 0.06 16.06 0.06 C 17.17 0.06 18.06 0.96 18.06 2.06 C 18.06 3.17 17.17 4.06 16.06 4.06 Z M 9.06 4.06 C 7.96 4.06 7.06 3.17 7.06 2.06 C 7.06 0.96 7.96 0.06 9.06 0.06 C 10.17 0.06 11.06 0.96 11.06 2.06 C 11.06 3.17 10.17 4.06 9.06 4.06 Z M 2.06 4.06 C 0.96 4.06 0.06 3.17 0.06 2.06 C 0.06 0.96 0.96 0.06 2.06 0.06 C 3.17 0.06 4.06 0.96 4.06 2.06 C 4.06 3.17 3.17 4.06 2.06 4.06 Z"/>
</svg>
