<svg xmlns="http://www.w3.org/2000/svg" id="Layer_1" data-name="Layer 1" viewBox="0 0 1382.1 301.5">
    <defs>
        <style>
            .cls-1{fill:#ffb300;}.cls-2{fill:#fa485d;}.cls-3{fill:#5a83f5;}.cls-4{fill:#c43100;}.cls-5{fill:#962493;}.cls-6{fill:#147a0a;}.cls-7{fill:#250078;}.cls-8{fill:#fff;}
        </style>
    </defs>
    <g id="Sign">
        <path style="fill:#ffb300;" id="Yellow" d="M12.2 90.2A38.8 38.8 0 0 1 59 35.8l108.2 36a59.2 59.2 0 0 1 40.5 56.3 52.4 52.4 0 0 1-52.4 53 26.2 26.2 0 0 0-26.3 26 26.2 26.2 0 0 1-26 26 28.7 28.7 0 0 1-25.3-15z" class="cls-1"/>
        <path id="Magenta" d="M83 85l27-32 33.2-39.3a38.8 38.8 0 0 1 62.4 4.4l70 111a38.8 38.8 0 0 1-21 58l-52 17z" class="cls-2"/>
        <path id="Blue" d="M38.4 141.2L8.4 179a38.8 38.8 0 0 0 16 60l122 48a38.8 38.8 0 0 0 53-33.4l3.3-50.7z" class="cls-3"/>
        <path id="Red" d="M207.7 128a59.2 59.2 0 0 0-40.5-56l-57-19L83 85" class="cls-4"/>
        <path id="Purple" d="M110.6 231.7l92-28.8 5-72c.3-7-43.4-1-65.4 22-28.2 29-36 79-31.6 77z" class="cls-5"/>
        <path id="Green" d="M82.6 85.6l-44.2 55.6 39 76a28.7 28.7 0 0 0 25.5 15.6c14 0-16-153.4-21-147.2z" class="cls-6"/>
        <path id="Deep_Blue" d="M76.7 206.8a26 26 0 0 0 17 24.5 28.6 28.6 0 0 0 9.2 1.5 26.2 26.2 0 0 0 26-26.2 26.2 26.2 0 0 1 26-26.2 52.4 52.4 0 0 0 52-46v-2.7A52.4 52.4 0 0 0 155 76l-52-.5a26.2 26.2 0 0 0-20.5 10l-1 1.2a26.2 26.2 0 0 0-4.8 15z" data-name="Deep Blue" class="cls-7"/>
    </g>
    <path id="Text" d="M1373 203.2q-14.8 7-24.8 7-9 0-13.3-5t-5-17.2v-79.7h48V82h-48V36.4h-35V82h-24v26.6h23.2v86q0 24 13 36t34 12q20 0 41-12zM1224 85q-18-10.6-41.2-10.6-19.3 0-34 7.6a59.8 59.8 0 0 0-24 22.3V75.7h-35.6v225.8h35.7v-89a59.5 59.5 0 0 0 24 22.2q14 7.6 34 7.6 23 0 41-10.4a71 71 0 0 0 27-30q9-19 9-44t-10-45a72.5 72.5 0 0 0-27-29zm-4.7 100.8a46.6 46.6 0 0 1-18 19.2 50 50 0 0 1-26 6.8q-22 0-36.2-15t-14-39a59 59 0 0 1 7-27.6 46.8 46.8 0 0 1 18-19 50 50 0 0 1 26-7 49.3 49.3 0 0 1 26 7 48.2 48.2 0 0 1 18 19.2 58 58 0 0 1 7 27.4 60.5 60.5 0 0 1-6 28zm-230-111.4q-47.6 0-62.8 39.8-6-19-20.7-29.4t-37-10.4q-43 0-60 33.3v-32h-35.4V241H809v-81.7q0-22 12.3-36.5t33.6-15q18 0 28 10.6t10 29.6v93h36v-81q0-22 12-36.5t33-15q18 0 28 10.6t11 29v93h36V138q0-29.4-16.5-46.5t-44.5-17zm-292.7 82.8q0 22.3-12.3 36.8t-33 14.8q-18 0-28.4-10.8t-11-29.3v-93h-35v103q0 29.5 16 46.6t44 17q43 0 59-33.5v32.4h36V75.7h-36V157zM513.4 85q-17.8-10.6-41.2-10.6-19.3 0-34 7.6a59.8 59.8 0 0 0-23.8 22.3V75.7h-35.8v225.8h35.8v-89a59.5 59.5 0 0 0 24 22.2q15 7.6 34.5 7.6 23 0 41-10.4a71 71 0 0 0 27-30q10-19 10-44t-10-44a72.5 72.5 0 0 0-28-29zm-4.6 100.8a46.6 46.6 0 0 1-18 19.2 50 50 0 0 1-26 6.8q-22 0-36.3-15t-14-39a59 59 0 0 1 6.3-27.6 46.8 46.8 0 0 1 17.8-19 50 50 0 0 1 26.2-7 49.3 49.3 0 0 1 26 7 48.2 48.2 0 0 1 18 19.2 58 58 0 0 1 6.4 27.4 60.5 60.5 0 0 1-6.4 28z" class="cls-8"/>
</svg>