<?xml version="1.0" encoding="utf-8"?>
<!-- Generator: Adobe Illustrator 19.2.1, SVG Export Plug-In . SVG Version: 6.00 Build 0)  -->
<svg version="1.1" id="Layer_1" xmlns="http://www.w3.org/2000/svg" xmlns:xlink="http://www.w3.org/1999/xlink" x="0px" y="0px"
	 viewBox="0 0 37 29" style="enable-background:new 0 0 37 29;" xml:space="preserve">
<style type="text/css">
	.st0{fill-rule:evenodd;clip-rule:evenodd;fill:none;stroke:#000000;stroke-width:2;stroke-linejoin:round;stroke-miterlimit:10;}
	.st1{fill:none;}
</style>
<g>
	<path d="M33,3h-4.9c0,0-1.5-3-3-3s-4.5,0-6,0s-3.1,3-3.1,3H4C1.8,3,0,4.8,0,7v18c0,2.2,1.8,4,4,4h29c2.2,0,4-1.8,4-4V7
		C37,4.8,35.2,3,33,3z M35,25c0,1.1-0.9,2-2,2H4c-1.1,0-2-0.9-2-2V7c0-1.1,0.9-2,2-2h11.9c0.8,0,1.4-0.4,1.8-1.1
		c0.4-0.8,1.1-1.7,1.4-1.9h5.7c0.4,0.2,1,1.1,1.4,1.9c0.3,0.7,1,1.1,1.8,1.1H33c1.1,0,2,0.9,2,2V25z"/>
	<path d="M7.5,7h-2C4.7,7,4,7.7,4,8.5C4,9.3,4.7,10,5.5,10h2C8.3,10,9,9.3,9,8.5C9,7.7,8.3,7,7.5,7z"/>
	<path d="M22,8c-4.4,0-8,3.6-8,8c0,4.4,3.6,8,8,8c4.4,0,8-3.6,8-8C30,11.6,26.4,8,22,8z M22,22c-3.3,0-6-2.7-6-6s2.7-6,6-6
		s6,2.7,6,6S25.3,22,22,22z"/>
</g>
</svg>
