<?xml version="1.0" encoding="utf-8"?>
<!-- Generator: Adobe Illustrator 19.2.1, SVG Export Plug-In . SVG Version: 6.00 Build 0)  -->
<svg version="1.1" id="Layer_1" xmlns="http://www.w3.org/2000/svg" xmlns:xlink="http://www.w3.org/1999/xlink" x="0px" y="0px"
	 viewBox="0 0 26 36" style="enable-background:new 0 0 26 36;" xml:space="preserve">
<g>
	<path class="colored" d="M13,0C5.6,0,0,5.4,0,12.5c0,3.9,3.3,11.1,10.2,22c0.6,1,1.6,1.5,2.8,1.5s2.2-0.6,2.8-1.5C22.7,23.6,26,16.4,26,12.5
		C26,5.4,20.4,0,13,0z M14.1,33.4c-0.5,0.8-1.7,0.8-2.2,0C3.7,20.4,2,14.9,2,12.5C2,6.4,6.6,2,13,2s11,4.4,11,10.5
		C24,14.9,22.3,20.4,14.1,33.4z"/>
	<path class="colored" d="M13,7c-2.8,0-5,2.2-5,5s2.2,5,5,5s5-2.2,5-5S15.8,7,13,7z M13,15c-1.7,0-3-1.3-3-3s1.3-3,3-3s3,1.3,3,3S14.7,15,13,15z"/>
</g>
</svg>
