<svg xmlns="http://www.w3.org/2000/svg" viewBox="0 0 18 17">
  <defs>
    <clipPath id="a">
      <path fill="#fff" d="M254.647 312.2l4.291-3.06c.231-.165.328-.458.239-.725-.088-.267-.342-.635-.628-.635h-5.303l-1.639-4.763c-.088-.267-.341-.448-.627-.448s-.54.181-.628.448l-1.639 4.763h-5.303c-.286 0-.54.368-.628.635-.088.267.008.56.24.725l4.29 3.06-1.639 4.952c-.088.267.008.56.24.725.231.165.545.165.776 0l4.291-3.061 4.29 3.061c.232.165.545.165.776 0 .232-.165.329-.458.24-.725z"/>
    </clipPath>
  </defs>
  <path class="colored" fill="#ffb300" d="M12.647 10.2l4.291-3.06c.231-.165.328-.458.239-.725-.088-.267-.342-.635-.628-.635h-5.303L9.607 1.017C9.519.75 9.266.569 8.98.569s-.54.181-.628.448L6.713 5.78H1.41c-.286 0-.54.368-.628.635-.088.267.008.56.24.725l4.29 3.06-1.639 4.952c-.088.267.008.56.24.725.231.165.545.165.776 0l4.291-3.061 4.29 3.061c.232.165.545.165.776 0 .232-.165.329-.458.24-.725z"/>
  <path class="colored-stroke" fill="none" stroke="gray" stroke-width="1" stroke-miterlimit="50" d="M254.647 312.2l4.291-3.06c.231-.165.328-.458.239-.725-.088-.267-.342-.635-.628-.635h-5.303l-1.639-4.763c-.088-.267-.341-.448-.627-.448s-.54.181-.628.448l-1.639 4.763h-5.303c-.286 0-.54.368-.628.635-.088.267.008.56.24.725l4.29 3.06-1.639 4.952c-.088.267.008.56.24.725.231.165.545.165.776 0l4.291-3.061 4.29 3.061c.232.165.545.165.776 0 .232-.165.329-.458.24-.725z" stroke-dasharray="0" stroke-linejoin="round" stroke-linecap="round" clip-path="url(&quot;#a&quot;)" transform="translate(-242 -302)"/>
</svg>