<?xml version="1.0" encoding="UTF-8" standalone="no"?>
<!-- Created with Inkscape (http://www.inkscape.org/) -->

<svg
   xmlns:dc="http://purl.org/dc/elements/1.1/"
   xmlns:cc="http://creativecommons.org/ns#"
   xmlns:rdf="http://www.w3.org/1999/02/22-rdf-syntax-ns#"
   xmlns:svg="http://www.w3.org/2000/svg"
   xmlns="http://www.w3.org/2000/svg"
   xmlns:sodipodi="http://sodipodi.sourceforge.net/DTD/sodipodi-0.dtd"
   xmlns:inkscape="http://www.inkscape.org/namespaces/inkscape"
   width="100"
   height="100"
   viewBox="0 0 99.999997 99.999997"
   id="svg4136"
   version="1.1"
   inkscape:version="0.91 r13725"
   sodipodi:docname="checkbox.svg">
  <defs
     id="defs4138" />
  <sodipodi:namedview
     id="base"
     pagecolor="#ffffff"
     bordercolor="#666666"
     borderopacity="1.0"
     inkscape:pageopacity="0.0"
     inkscape:pageshadow="2"
     inkscape:zoom="1.4"
     inkscape:cx="24.804164"
     inkscape:cy="-22.857143"
     inkscape:document-units="px"
     inkscape:current-layer="layer1"
     showgrid="false"
     units="px"
     inkscape:window-width="1280"
     inkscape:window-height="715"
     inkscape:window-x="2560"
     inkscape:window-y="1200"
     inkscape:window-maximized="1" />
  <metadata
     id="metadata4141">
    <rdf:RDF>
      <cc:Work
         rdf:about="">
        <dc:format>image/svg+xml</dc:format>
        <dc:type
           rdf:resource="http://purl.org/dc/dcmitype/StillImage" />
        <dc:title></dc:title>
      </cc:Work>
    </rdf:RDF>
  </metadata>
  <g
     inkscape:label="Layer 1"
     inkscape:groupmode="layer"
     id="layer1"
     transform="translate(0,-952.36223)">
    <g
       id="g4834"
       transform="matrix(1.1111111,0,0,1.1111111,-5.5555555,946.80665)">
      <path
         id="path4820"
         d="M 80,5 20,5 C 11.7,5 5,11.7 5,20 l 0,60 c 0,8.3 6.7,15 15,15 l 60,0 c 8.3,0 15,-6.7 15,-15 L 95,20 C 95,11.7 88.3,5 80,5 Z m 5,75 c 0,2.8 -2.2,5 -5,5 l -60,0 c -2.8,0 -5,-2.2 -5,-5 l 0,-60 c 0,-2.8 2.2,-5 5,-5 l 60,0 c 2.8,0 5,2.2 5,5 l 0,60 z"
         inkscape:connector-curvature="0" />
      <polygon
         id="polygon4822"
         points="42.9,58.8 28.8,44.7 21.7,51.8 42.9,73 78.3,37.6 71.2,30.6 " />
    </g>
  </g>
</svg>
